<?xml version="1.0" encoding="utf-8"?>
<!-- Generator: Adobe Illustrator 15.1.0, SVG Export Plug-In . SVG Version: 6.00 Build 0)  -->
<!DOCTYPE svg PUBLIC "-//W3C//DTD SVG 1.1//EN" "http://www.w3.org/Graphics/SVG/1.1/DTD/svg11.dtd">
<svg version="1.1" id="Capa_1" xmlns="http://www.w3.org/2000/svg" xmlns:xlink="http://www.w3.org/1999/xlink" x="0px" y="0px"
	 width="141.732px" height="141.732px" viewBox="0 0 141.732 141.732" enable-background="new 0 0 141.732 141.732"
	 xml:space="preserve">
<g>
	<g>
		<g>
			<path fill="#0066FF" d="M48.904,76.743h10.395c0.956,0,1.732-0.776,1.732-1.733c0-0.956-0.776-1.731-1.732-1.731h-8.661v-3.464
				h1.731c0.956,0,1.732-0.776,1.732-1.732c0-0.957-0.776-1.733-1.732-1.733h-1.731v-3.464h1.731c0.956,0,1.732-0.775,1.732-1.732
				c0-0.956-0.776-1.732-1.732-1.732h-1.731v-3.464h8.661c0.956,0,1.732-0.776,1.732-1.732s-0.776-1.731-1.732-1.731h-8.661v-3.465
				h1.731c0.956,0,1.732-0.775,1.732-1.732s-0.776-1.732-1.732-1.732h-1.731v-3.465h1.731c0.956,0,1.732-0.776,1.732-1.732
				c0-0.957-0.776-1.733-1.732-1.733h-1.731v-3.465h8.661c0.956,0,1.732-0.775,1.732-1.731s-0.776-1.732-1.732-1.732h-8.661v-6.93
				h24.255v50.24c0,0.957,0.775,1.733,1.73,1.733c0.957,0,1.732-0.776,1.732-1.733V23.041c0-0.957-0.775-1.731-1.732-1.731H48.904
				c-0.956,0-1.732,0.775-1.732,1.731v51.973C47.171,75.967,47.948,76.743,48.904,76.743z"/>
			<path d="M24.65,76.743c0.955,0,1.73-0.776,1.73-1.733V29.967c0-2.525,2.673-5.197,5.198-5.197h10.395
				c0.957,0,1.732-0.776,1.732-1.732c0-0.957-0.775-1.732-1.731-1.732H31.579c-4.452,0-8.662,4.21-8.662,8.662V75.01
				C22.917,75.967,23.693,76.743,24.65,76.743z"/>
			<path fill="#0066FF" d="M100.878,42.094c-0.956,0-1.733,0.776-1.733,1.732V75.01c0,0.957,0.777,1.732,1.733,1.732
				c0.955,0,1.731-0.775,1.731-1.732V43.827C102.61,42.87,101.833,42.094,100.878,42.094z"/>
			<path fill="#0066FF" d="M90.483,43.826V75.01c0,0.957,0.776,1.732,1.731,1.732c0.957,0,1.732-0.775,1.732-1.732V43.827
				c0-0.957-0.775-1.733-1.732-1.733C91.26,42.094,90.483,42.87,90.483,43.826z"/>
			<path fill="#0066FF" d="M93.948,121.787h-1.732v-1.732c0-0.957-0.775-1.732-1.731-1.732s-1.731,0.775-1.731,1.732v1.732h-3.467
				v-1.732c0-0.957-0.774-1.732-1.731-1.732c-0.955,0-1.731,0.775-1.731,1.732v1.732h-3.466v-1.732c0-0.957-0.775-1.732-1.732-1.732
				c-0.955,0-1.73,0.775-1.73,1.732v1.732h-3.466v-1.732c0-0.957-0.775-1.732-1.732-1.732c-0.956,0-1.732,0.775-1.732,1.732v1.732
				h-3.465v-1.732c0-0.957-0.774-1.732-1.731-1.732c-0.956,0-1.732,0.775-1.732,1.732v1.732H57.57v-1.732
				c0-0.957-0.775-1.732-1.732-1.732c-0.955,0-1.731,0.775-1.731,1.732v1.732h-3.464v-1.732c0-0.957-0.776-1.732-1.733-1.732
				c-0.956,0-1.731,0.775-1.731,1.732v1.732h-3.466v-1.732c0-0.957-0.775-1.732-1.731-1.732s-1.732,0.775-1.732,1.732v1.732h-3.465
				v-1.732c0-0.957-0.775-1.732-1.731-1.732c-0.957,0-1.733,0.775-1.733,1.732v1.732h-1.731c-0.956,0-1.731,0.773-1.731,1.73
				c0,0.956,0.775,1.732,1.731,1.732h62.369c0.955,0,1.731-0.774,1.731-1.732C95.68,122.562,94.904,121.787,93.948,121.787z"/>
			<path fill="#0066FF" d="M83.552,76.743c0.957,0,1.731-0.776,1.731-1.733V37.394l6.931-11.088l5.538,8.857h-7.271
				c-0.957,0-1.731,0.776-1.731,1.732s0.774,1.731,1.731,1.731h10.396c0.63,0,1.209-0.341,1.516-0.893
				c0.305-0.55,0.288-1.226-0.047-1.758l-8.662-13.859c-0.634-1.014-2.304-1.014-2.938,0l-8.661,13.859
				c-0.172,0.275-0.264,0.592-0.264,0.918v38.112C81.821,75.967,82.596,76.743,83.552,76.743z"/>
			<path d="M118.201,21.304h-17.323c-0.956,0-1.733,0.775-1.733,1.732c0,0.956,0.777,1.732,1.733,1.732h17.323
				c2.526,0,5.197,2.672,5.197,5.196v62.369c0,2.526-2.671,5.196-5.197,5.196H31.579c-2.525,0-5.198-2.67-5.198-5.196v-8.663h91.82
				c0.957,0,1.732-0.775,1.732-1.731c0-0.955-0.775-1.731-1.732-1.731H24.65c-0.957,0-1.732,0.776-1.732,1.731v10.396
				c0,4.453,4.21,8.662,8.662,8.662h86.622c4.452,0,8.662-4.209,8.662-8.662V29.968C126.864,25.515,122.654,21.304,118.201,21.304z"
				/>
			<path d="M71.425,90.601c0,1.912,1.555,3.467,3.467,3.467c1.909,0,3.464-1.555,3.464-3.467c0-1.909-1.554-3.464-3.464-3.464
				C72.979,87.137,71.425,88.691,71.425,90.601z"/>
			<path d="M83.552,114.857c0.957,0,1.731-0.776,1.731-1.732v-6.93c0-0.957-0.774-1.732-1.731-1.732
				c-0.955,0-1.731,0.775-1.731,1.732v6.93C81.821,114.081,82.596,114.857,83.552,114.857z"/>
			<path d="M67.96,113.125v-6.93c0-0.957-0.775-1.732-1.73-1.732c-0.957,0-1.732,0.775-1.732,1.732v6.93
				c0,0.956,0.775,1.732,1.732,1.732C67.184,114.857,67.96,114.081,67.96,113.125z"/>
			<path fill="#0066FF" d="M113.005,114.857h-3.466c-3.821,0-6.93,3.107-6.93,6.93v1.73c0,0.956,0.776,1.732,1.732,1.732H118.2
				c0.956,0,1.732-0.776,1.732-1.732v-1.73C119.934,117.966,116.826,114.857,113.005,114.857z M106.074,121.787
				c0-1.912,1.555-3.466,3.465-3.466h3.466c1.91,0,3.466,1.554,3.466,3.466H106.074z"/>
		</g>
	</g>
</g>
</svg>
