<?xml version="1.0" encoding="utf-8"?>
<!-- Generator: Adobe Illustrator 15.1.0, SVG Export Plug-In . SVG Version: 6.00 Build 0)  -->
<!DOCTYPE svg PUBLIC "-//W3C//DTD SVG 1.1//EN" "http://www.w3.org/Graphics/SVG/1.1/DTD/svg11.dtd">
<svg version="1.1" id="Capa_1" xmlns="http://www.w3.org/2000/svg" xmlns:xlink="http://www.w3.org/1999/xlink" x="0px" y="0px"
	 width="141.732px" height="141.732px" viewBox="226.774 350.079 141.732 141.732"
	 enable-background="new 226.774 350.079 141.732 141.732" xml:space="preserve">
<g>
	<path fill="#0066FF" d="M332.685,423.354c-1.987-1.983-5.218-1.983-7.205,0l-26.271,26.27l-3.62,13.277l-0.886,0.89
		c-0.662,0.66-0.664,1.729-0.011,2.396l-0.008,0.033l0.031-0.01c0.332,0.328,0.762,0.493,1.194,0.493c0.437,0,0.874-0.168,1.206-0.5
		l0.889-0.887l13.275-3.621l26.268-26.271c1.987-1.985,1.987-5.219,0-7.206L332.685,423.354z M303.15,450.513l17.484-17.482
		l7.242,7.242l-17.483,17.481L303.15,450.513z M301.61,453.799l5.495,5.495l-7.557,2.062L301.61,453.799z M335.134,433.009
		l-4.847,4.849l-7.242-7.241l4.847-4.846c0.656-0.658,1.724-0.657,2.378-0.003l4.866,4.865
		C335.79,431.288,335.79,432.356,335.134,433.009z"/>
	<path fill="#0066FF" d="M311.73,415.036c0-0.583-0.298-1.127-0.79-1.442l-18.774-11.948c-0.525-0.333-1.191-0.353-1.74-0.055
		c-0.543,0.299-0.884,0.873-0.884,1.497v23.895c0,0.623,0.341,1.196,0.886,1.496c0.256,0.14,0.539,0.211,0.822,0.211
		c0.318,0,0.638-0.091,0.916-0.267l18.774-11.948C311.432,416.161,311.73,415.62,311.73,415.036z M292.955,423.875v-17.678
		l13.889,8.841L292.955,423.875z"/>
	<path fill="#333333" d="M345.868,375.778h-17.069h-61.446h-17.069c-0.942,0-1.706,0.763-1.706,1.707v18.776v18.775v18.774v18.775
		c0,0.942,0.764,1.705,1.706,1.705h17.069h20.481c0.942,0,1.707-0.763,1.707-1.705c0-0.944-0.765-1.707-1.707-1.707H269.06v-17.068
		v-18.774v-18.775v-17.07h58.031v17.07v18.775c0,0.943,0.766,1.706,1.708,1.706h15.361v13.654c0,0.943,0.766,1.707,1.708,1.707
		c0.941,0,1.706-0.764,1.706-1.707v-15.36v-18.775v-18.776C347.574,376.543,346.81,375.778,345.868,375.778z M251.991,416.742
		h13.654v15.361h-13.654V416.742z M265.646,413.33h-13.654v-15.363h13.654V413.33z M251.991,450.879v-15.36h13.654v15.36H251.991z
		 M265.646,394.553h-13.654V379.19h13.654V394.553z M344.16,379.19v15.363h-13.654V379.19H344.16z M330.506,413.33v-15.363h13.654
		v15.363H330.506z"/>
</g>
</svg>
