<?xml version="1.0" encoding="utf-8"?>
<!-- Generator: Adobe Illustrator 15.1.0, SVG Export Plug-In . SVG Version: 6.00 Build 0)  -->
<!DOCTYPE svg PUBLIC "-//W3C//DTD SVG 1.1//EN" "http://www.w3.org/Graphics/SVG/1.1/DTD/svg11.dtd">
<svg version="1.1" id="Capa_1" xmlns="http://www.w3.org/2000/svg" xmlns:xlink="http://www.w3.org/1999/xlink" x="0px" y="0px"
	 width="141.732px" height="141.732px" viewBox="0 0 141.732 141.732" enable-background="new 0 0 141.732 141.732"
	 xml:space="preserve">
<g>
	<g>
		<path d="M23.65,71.743c0.955,0,1.73-0.776,1.73-1.733V24.967c0-2.525,2.673-5.197,5.198-5.197h10.395
			c0.957,0,1.732-0.776,1.732-1.732c0-0.957-0.775-1.732-1.731-1.732H30.579c-4.452,0-8.662,4.21-8.662,8.662V70.01
			C21.917,70.967,22.693,71.743,23.65,71.743z"/>
		<path fill="#0066FF" d="M92.948,116.787h-1.732v-1.732c0-0.957-0.775-1.732-1.731-1.732s-1.731,0.775-1.731,1.732v1.732h-3.467
			v-1.732c0-0.957-0.774-1.732-1.731-1.732c-0.955,0-1.731,0.775-1.731,1.732v1.732h-3.466v-1.732c0-0.957-0.775-1.732-1.732-1.732
			c-0.955,0-1.73,0.775-1.73,1.732v1.732h-3.466v-1.732c0-0.957-0.775-1.732-1.732-1.732c-0.956,0-1.732,0.775-1.732,1.732v1.732
			h-3.465v-1.732c0-0.957-0.774-1.732-1.731-1.732c-0.956,0-1.732,0.775-1.732,1.732v1.732H56.57v-1.732
			c0-0.957-0.775-1.732-1.732-1.732c-0.955,0-1.731,0.775-1.731,1.732v1.732h-3.464v-1.732c0-0.957-0.776-1.732-1.733-1.732
			c-0.956,0-1.731,0.775-1.731,1.732v1.732h-3.466v-1.732c0-0.957-0.775-1.732-1.731-1.732s-1.732,0.775-1.732,1.732v1.732h-3.465
			v-1.732c0-0.957-0.775-1.732-1.731-1.732c-0.957,0-1.733,0.775-1.733,1.732v1.732h-1.731c-0.956,0-1.731,0.773-1.731,1.73
			c0,0.956,0.775,1.732,1.731,1.732h62.369c0.955,0,1.731-0.774,1.731-1.732C94.68,117.562,93.904,116.787,92.948,116.787z"/>
		<path d="M117.201,16.304H99.878c-0.956,0-1.733,0.775-1.733,1.732c0,0.956,0.777,1.732,1.733,1.732h17.323
			c2.526,0,5.197,2.672,5.197,5.196v62.369c0,2.526-2.671,5.196-5.197,5.196H30.579c-2.525,0-5.198-2.67-5.198-5.196v-8.663h91.82
			c0.957,0,1.732-0.775,1.732-1.731c0-0.955-0.775-1.731-1.732-1.731H23.65c-0.957,0-1.732,0.776-1.732,1.731v10.396
			c0,4.453,4.21,8.662,8.662,8.662h86.622c4.452,0,8.662-4.209,8.662-8.662V24.968C125.864,20.515,121.654,16.304,117.201,16.304z"
			/>
		<path d="M70.425,85.601c0,1.912,1.555,3.467,3.467,3.467c1.909,0,3.464-1.555,3.464-3.467c0-1.909-1.554-3.464-3.464-3.464
			C71.979,82.137,70.425,83.691,70.425,85.601z"/>
		<path d="M82.552,109.857c0.957,0,1.731-0.776,1.731-1.732v-6.93c0-0.957-0.774-1.732-1.731-1.732
			c-0.955,0-1.731,0.775-1.731,1.732v6.93C80.821,109.081,81.596,109.857,82.552,109.857z"/>
		<path d="M66.96,108.125v-6.93c0-0.957-0.775-1.732-1.73-1.732c-0.957,0-1.732,0.775-1.732,1.732v6.93
			c0,0.956,0.775,1.732,1.732,1.732C66.184,109.857,66.96,109.081,66.96,108.125z"/>
		<path fill="#0066FF" d="M112.005,109.857h-3.466c-3.821,0-6.93,3.107-6.93,6.93v1.73c0,0.956,0.776,1.732,1.732,1.732H117.2
			c0.956,0,1.732-0.776,1.732-1.732v-1.73C118.934,112.966,115.826,109.857,112.005,109.857z M105.074,116.787
			c0-1.912,1.555-3.466,3.465-3.466h3.466c1.91,0,3.466,1.554,3.466,3.466H105.074z"/>
	</g>
</g>
<path fill="#0066FF" d="M92.719,27.145c-1.788-1.783-4.694-1.783-6.481,0L62.604,50.779l-3.258,11.944l-0.797,0.801
	c-0.596,0.593-0.597,1.555-0.009,2.155l-0.007,0.029l0.027-0.009c0.298,0.295,0.686,0.443,1.074,0.443
	c0.394,0,0.786-0.151,1.085-0.45l0.8-0.798l11.942-3.257l23.631-23.635c1.787-1.784,1.787-4.694,0-6.482L92.719,27.145z
	 M66.149,51.578l15.729-15.727l6.515,6.516L72.666,58.093L66.149,51.578z M64.763,54.535l4.944,4.943l-6.8,1.855L64.763,54.535z
	 M94.923,35.832l-4.36,4.362l-6.515-6.514l4.36-4.359c0.591-0.592,1.55-0.592,2.139-0.004l4.378,4.377
	C95.512,34.284,95.512,35.245,94.923,35.832z"/>
<path fill="#0066FF" d="M46.533,18.033"/>
<path fill="#0066FF" d="M92.7,18.032c0,1.013-0.821,1.834-1.834,1.834h-43c-1.012,0-1.833-0.821-1.833-1.834l0,0
	c0-1.012,0.821-1.833,1.833-1.833h43C91.879,16.199,92.7,17.02,92.7,18.032L92.7,18.032z"/>
</svg>
