<?xml version="1.0" encoding="utf-8"?>
<!-- Generator: Adobe Illustrator 15.1.0, SVG Export Plug-In . SVG Version: 6.00 Build 0)  -->
<!DOCTYPE svg PUBLIC "-//W3C//DTD SVG 1.1//EN" "http://www.w3.org/Graphics/SVG/1.1/DTD/svg11.dtd">
<svg version="1.1" id="Capa_1" xmlns="http://www.w3.org/2000/svg" xmlns:xlink="http://www.w3.org/1999/xlink" x="0px" y="0px"
	 width="141.732px" height="141.732px" viewBox="226.774 350.079 141.732 141.732"
	 enable-background="new 226.774 350.079 141.732 141.732" xml:space="preserve">
<g id="Layer_2">
	<g>
		<path fill="#333333" d="M281.72,381.562c0-1.809-1.465-3.274-3.274-3.274h-15.692c-1.809,0-3.273,1.465-3.273,3.274v15.69
			c0,1.809,1.465,3.274,3.273,3.274h15.69c1.809,0,3.274-1.465,3.274-3.274v-15.69H281.72z M275.172,393.978h-9.146v-9.144h9.143
			v9.144H275.172z"/>
		<path fill="#333333" d="M290.542,400.526h15.689c1.809,0,3.274-1.465,3.274-3.274v-15.69c0-1.809-1.466-3.274-3.274-3.274h-15.689
			c-1.81,0-3.274,1.465-3.274,3.274v15.69C287.268,399.059,288.733,400.526,290.542,400.526z M293.816,384.834h9.143v9.144h-9.143
			V384.834z"/>
		<path fill="#333333" d="M318.325,400.526h15.69c1.809,0,3.273-1.465,3.273-3.274v-15.69c0-1.809-1.465-3.274-3.273-3.274h-15.69
			c-1.809,0-3.273,1.465-3.273,3.274v15.69C315.052,399.059,316.519,400.526,318.325,400.526z M321.6,384.834h9.143v9.144H321.6
			V384.834z"/>
		<path fill="#333333" d="M281.72,409.346c0-1.809-1.465-3.273-3.274-3.273h-15.692c-1.809,0-3.273,1.465-3.273,3.273v15.69
			c0,1.809,1.465,3.273,3.273,3.273h15.69c1.809,0,3.274-1.465,3.274-3.273v-15.69H281.72z M275.172,421.764h-9.146v-9.143h9.143
			v9.143H275.172z"/>
		<path fill="#333333" d="M287.268,425.038c0,1.809,1.465,3.273,3.274,3.273h15.689c1.809,0,3.274-1.465,3.274-3.273v-15.69
			c0-1.809-1.466-3.274-3.274-3.274h-15.689c-1.81,0-3.274,1.465-3.274,3.274V425.038z M293.816,412.62h9.143v9.142h-9.143V412.62z"
			/>
		<path fill="#333333" d="M315.052,425.038c0,1.809,1.465,3.273,3.273,3.273h15.69c1.809,0,3.273-1.465,3.273-3.273v-15.69
			c0-1.809-1.465-3.274-3.273-3.274h-15.69c-1.809,0-3.273,1.465-3.273,3.274V425.038z M321.6,412.62h9.143v9.142H321.6V412.62z"/>
		<path fill="#333333" d="M278.446,433.858h-15.692c-1.809,0-3.273,1.465-3.273,3.273v15.69c0,1.809,1.465,3.273,3.273,3.273h15.69
			c1.809,0,3.274-1.465,3.274-3.273v-15.69C281.72,435.325,280.252,433.858,278.446,433.858z M275.172,449.548h-9.146v-9.143h9.143
			v9.143H275.172z"/>
		<path fill="#333333" d="M287.268,452.822c0,1.809,1.465,3.273,3.274,3.273h15.689c1.809,0,3.274-1.465,3.274-3.273v-15.69
			c0-1.809-1.466-3.273-3.274-3.273h-15.689c-1.81,0-3.274,1.465-3.274,3.273V452.822z M293.816,440.405h9.143v9.143h-9.143V440.405
			z"/>
		<path fill="#0066FF" d="M315.052,452.822c0,1.809,1.465,3.273,3.273,3.273h15.69c1.809,0,3.273-1.465,3.273-3.273v-15.69
			c0-1.809-1.465-3.273-3.273-3.273h-15.69c-1.809,0-3.273,1.465-3.273,3.273V452.822z M321.6,440.405h9.143v9.143H321.6V440.405z"
			/>
	</g>
</g>
</svg>
