<?xml version="1.0" encoding="utf-8"?>
<!-- Generator: Adobe Illustrator 15.1.0, SVG Export Plug-In . SVG Version: 6.00 Build 0)  -->
<!DOCTYPE svg PUBLIC "-//W3C//DTD SVG 1.1//EN" "http://www.w3.org/Graphics/SVG/1.1/DTD/svg11.dtd">
<svg version="1.1" id="Capa_1" xmlns="http://www.w3.org/2000/svg" xmlns:xlink="http://www.w3.org/1999/xlink" x="0px" y="0px"
	 width="141.732px" height="141.732px" viewBox="226.774 350.079 141.732 141.732"
	 enable-background="new 226.774 350.079 141.732 141.732" xml:space="preserve">
<g transform="translate(1 1)">
	<g>
		<g>
			<path fill="#0066FF" d="M280.93,403.24c-0.662-0.662-1.654-0.662-2.316,0l-16.547,16.546c-0.496,0.497-0.662,1.158-0.33,1.82
				c0.165,0.331,0.33,0.497,0.496,0.662l16.381,16.381c0.331,0.331,0.662,0.497,1.158,0.497s0.828-0.166,1.158-0.497
				c0.662-0.661,0.662-1.654,0-2.316l-15.389-15.388l15.389-15.389C281.592,404.895,281.592,403.901,280.93,403.24z"/>
			<path fill="#0066FF" d="M333.714,419.621l-16.381-16.381c-0.662-0.662-1.655-0.662-2.317,0c-0.661,0.661-0.661,1.654,0,2.316
				l15.389,15.389l-15.389,15.388c-0.661,0.662-0.661,1.655,0,2.316c0.332,0.332,0.662,0.497,1.158,0.497
				c0.497,0,0.993-0.165,1.158-0.497l16.547-16.546c0.496-0.497,0.662-1.158,0.331-1.82
				C334.045,419.952,333.879,419.787,333.714,419.621z"/>
			<path fill="#333333" d="M326.103,371.305h-56.259c-11.914,0-21.511,9.597-21.511,21.511v56.259
				c0,11.914,9.597,21.511,21.511,21.511h56.259c11.913,0,21.511-9.597,21.511-21.511v-56.259
				C347.614,380.901,338.016,371.305,326.103,371.305z M344.304,449.074c0,10.094-8.108,18.201-18.201,18.201h-56.259
				c-10.094,0-18.201-8.107-18.201-18.201v-56.259c0-10.094,8.107-18.201,18.201-18.201h56.259c10.093,0,18.201,8.107,18.201,18.201
				V449.074L344.304,449.074z"/>
			<path fill="#0066FF" d="M297.973,399.435c-5.46,0-9.928,4.467-9.928,9.928c0,0.993,0.662,1.654,1.654,1.654
				c0.993,0,1.655-0.661,1.655-1.654c0-3.641,2.978-6.619,6.618-6.619s6.619,2.979,6.619,6.619c0,1.82-0.828,3.641-2.316,4.964
				c-3.807,3.31-5.957,8.107-5.957,13.237v0.827c0,0.993,0.662,1.655,1.654,1.655c0.993,0,1.654-0.662,1.654-1.655v-0.827
				c0-4.137,1.82-8.107,4.799-10.59c2.15-1.985,3.475-4.633,3.475-7.611C307.902,403.901,303.434,399.435,297.973,399.435z"/>
			<path fill="#0066FF" d="M297.973,434.183c-1.323,0-2.481,1.158-2.481,2.481c0,1.324,1.158,2.482,2.481,2.482
				c1.324,0,2.482-1.158,2.482-2.482C300.455,435.341,299.297,434.183,297.973,434.183z"/>
		</g>
	</g>
</g>
</svg>
