<?xml version="1.0" encoding="utf-8"?>
<!-- Generator: Adobe Illustrator 15.1.0, SVG Export Plug-In . SVG Version: 6.00 Build 0)  -->
<!DOCTYPE svg PUBLIC "-//W3C//DTD SVG 1.1//EN" "http://www.w3.org/Graphics/SVG/1.1/DTD/svg11.dtd">
<svg version="1.1" id="Capa_1" xmlns="http://www.w3.org/2000/svg" xmlns:xlink="http://www.w3.org/1999/xlink" x="0px" y="0px"
	 width="141.732px" height="141.732px" viewBox="226.774 350.079 141.732 141.732"
	 enable-background="new 226.774 350.079 141.732 141.732" xml:space="preserve">
<g>
	<g>
		<path fill="#333333" d="M336.779,411.196c-2.471-23.597-22.253-41.393-46.015-41.393c-25.51,0-46.264,20.754-46.264,46.265
			c0,22.891,16.384,42.106,38.961,45.688c0.12,0.021,0.24,0.03,0.363,0.03c0.545,0,1.08-0.194,1.501-0.553
			c0.516-0.439,0.812-1.083,0.812-1.758v-1.465c0-0.816-0.428-1.573-1.128-1.987c-4.638-2.769-8.728-8.824-11.464-16.821h10.28
			c1.277,0,2.313-1.034,2.313-2.313c0-1.278-1.036-2.313-2.313-2.313h-30.402c-2.429-4.935-3.891-10.412-4.203-16.193H265.4
			c0.088,3.246,0.306,6.466,0.752,9.582c0.164,1.152,1.154,1.982,2.286,1.982c0.109,0,0.22-0.007,0.331-0.023
			c1.265-0.181,2.144-1.353,1.961-2.618c-0.414-2.9-0.62-5.901-0.706-8.925h13.801c1.277,0,2.313-1.033,2.313-2.313
			s-1.036-2.313-2.313-2.313h-13.819c0.167-5.758,0.944-11.24,2.214-16.192h16.232v13.879c0,1.279,1.036,2.313,2.313,2.313
			c1.277,0,2.313-1.034,2.313-2.313v-13.879h16.273c1.094,4.305,1.834,9.02,2.109,14.004c0.069,1.277,1.136,2.322,2.438,2.182
			c1.274-0.069,2.253-1.161,2.181-2.437c-0.268-4.871-0.962-9.477-1.977-13.751h13.976c2.133,4.318,3.567,9.063,4.097,14.119
			c0.133,1.27,1.272,2.193,2.543,2.059C335.988,413.606,336.91,412.469,336.779,411.196z M268.678,439.2
			c2.109,6.74,5.059,12.315,8.619,16.294c-8.846-2.984-16.211-8.795-21.198-16.294H268.678z M268.648,392.936h-5.642
			c-1.277,0-2.313,1.034-2.313,2.313s1.036,2.313,2.313,2.313h4.37c-1.166,4.976-1.844,10.435-1.995,16.192h-16.136
			c0.951-17.206,12.364-31.636,27.999-37.027C273.675,380.731,270.72,386.285,268.648,392.936z M293.078,392.936V381.37
			c0-1.279-1.037-2.313-2.313-2.313s-2.313,1.034-2.313,2.313v11.565h-14.878c3.787-11.073,10.148-18.505,17.191-18.505
			c7.023,0,13.415,7.372,17.212,18.508L293.078,392.936z M312.821,392.938c-2.104-6.665-5.075-12.268-8.653-16.273
			c8.736,2.954,16.188,8.699,21.236,16.273H312.821z"/>
	</g>
</g>
<g>
	<g>
		<path fill="#0066FF" d="M339.341,418.381h-41.637c-3.826,0-6.94,3.114-6.94,6.94v30.071c0,3.826,3.114,6.939,6.94,6.939h13.879
			v4.627h-2.313c-1.277,0-2.314,1.033-2.314,2.313s1.037,2.313,2.314,2.313h18.505c1.276,0,2.313-1.034,2.313-2.313
			s-1.037-2.313-2.313-2.313h-2.313v-6.94c0-1.279-1.036-2.313-2.313-2.313h-25.446c-1.274,0-2.313-1.036-2.313-2.313v-2.314h46.265
			v2.314c0,1.276-1.039,2.313-2.313,2.313h-6.94c-1.276,0-2.313,1.033-2.313,2.313c0,1.28,1.036,2.313,2.313,2.313h6.94
			c3.826,0,6.939-3.113,6.939-6.939v-30.071C346.281,421.495,343.167,418.381,339.341,418.381z M316.209,462.332h4.627v4.627h-4.627
			V462.332z M341.655,448.453h-46.264v-23.132c0-1.277,1.039-2.313,2.313-2.313h41.637c1.275,0,2.313,1.036,2.313,2.313V448.453z"/>
	</g>
</g>
</svg>
