<?xml version="1.0" encoding="utf-8"?>
<!-- Generator: Adobe Illustrator 15.1.0, SVG Export Plug-In . SVG Version: 6.00 Build 0)  -->
<!DOCTYPE svg PUBLIC "-//W3C//DTD SVG 1.1//EN" "http://www.w3.org/Graphics/SVG/1.1/DTD/svg11.dtd">
<svg version="1.1" id="Capa_1" xmlns="http://www.w3.org/2000/svg" xmlns:xlink="http://www.w3.org/1999/xlink" x="0px" y="0px"
	 width="141.732px" height="141.732px" viewBox="226.774 350.079 141.732 141.732"
	 enable-background="new 226.774 350.079 141.732 141.732" xml:space="preserve">
<g>
	<g>
		<g>
			<path fill="#333333" d="M316.216,370.201h-42.087c-5.968,0-10.823,4.856-10.823,10.825v3.794v71.633v4.316
				c0,5.969,4.855,10.825,10.823,10.825h42.087c5.968,0,10.822-4.856,10.822-10.825v-4.316V384.82v-3.794
				C327.038,375.057,322.184,370.201,316.216,370.201z M322.9,460.77c0,3.687-2.998,6.687-6.684,6.687h-42.087
				c-3.686,0-6.684-3-6.684-6.687v-2.247h55.457v2.247H322.9z M322.9,454.384h-55.455v-67.495h55.457v67.495H322.9z M322.9,382.75
				h-55.455v-1.724c0-3.687,2.999-6.686,6.684-6.686h42.087c3.686,0,6.684,3,6.684,6.686V382.75z"/>
		</g>
	</g>
	<g>
		<g>
			<path fill="#0066FF" d="M295.172,458.935c-2.235,0-4.053,1.818-4.053,4.055c0,2.235,1.818,4.055,4.053,4.055
				c2.235,0,4.054-1.819,4.054-4.055C299.226,460.753,297.407,458.935,295.172,458.935z M295.172,463.073
				c-0.046,0-0.084-0.038-0.084-0.084s0.038-0.084,0.084-0.084c0.046,0,0.085,0.038,0.085,0.084S295.219,463.073,295.172,463.073z"
				/>
		</g>
	</g>
	<g>
		<g>
			<path fill="#0066FF" d="M298.414,400.48c-1.124-0.22-2.209,0.511-2.43,1.632l-6.399,32.617c-0.221,1.121,0.51,2.208,1.631,2.429
				c0.135,0.025,0.268,0.038,0.401,0.038c0.97,0,1.834-0.685,2.028-1.671l6.401-32.616
				C300.265,401.788,299.535,400.701,298.414,400.48z"/>
		</g>
	</g>
	<g>
		<g>
			<path fill="#0066FF" d="M314.599,418.868c-0.003-0.034-0.003-0.068-0.006-0.102c-0.003-0.032-0.009-0.063-0.014-0.096
				c-0.004-0.034-0.008-0.067-0.015-0.101c-0.006-0.033-0.016-0.065-0.023-0.098c-0.008-0.032-0.015-0.064-0.023-0.096
				c-0.01-0.033-0.022-0.064-0.033-0.096c-0.012-0.032-0.021-0.063-0.033-0.095c-0.012-0.028-0.026-0.056-0.039-0.084
				c-0.016-0.032-0.028-0.067-0.046-0.1c-0.012-0.023-0.027-0.046-0.041-0.069c-0.021-0.036-0.04-0.072-0.063-0.106
				c-0.013-0.02-0.028-0.038-0.042-0.057c-0.026-0.038-0.053-0.075-0.081-0.11c-0.012-0.015-0.026-0.029-0.038-0.042
				c-0.033-0.039-0.066-0.078-0.103-0.114l-9.596-9.606c-0.808-0.808-2.118-0.809-2.927-0.001s-0.809,2.118-0.001,2.926l8.134,8.144
				l-7.991,7.999c-0.807,0.809-0.806,2.119,0.002,2.927c0.404,0.403,0.935,0.605,1.462,0.605c0.53,0,1.061-0.202,1.465-0.607
				l9.452-9.461c0.036-0.037,0.069-0.076,0.102-0.114c0.013-0.015,0.027-0.028,0.038-0.042c0.029-0.037,0.056-0.074,0.082-0.111
				c0.014-0.019,0.029-0.037,0.042-0.056c0.023-0.036,0.042-0.072,0.063-0.107c0.014-0.023,0.028-0.046,0.041-0.069
				c0.018-0.033,0.03-0.066,0.046-0.1c0.013-0.028,0.027-0.056,0.039-0.084c0.013-0.032,0.021-0.063,0.033-0.095
				c0.011-0.032,0.023-0.063,0.033-0.095c0.009-0.033,0.016-0.065,0.023-0.097c0.007-0.033,0.018-0.065,0.023-0.098
				c0.007-0.033,0.01-0.067,0.015-0.101c0.005-0.032,0.011-0.063,0.014-0.096c0.003-0.034,0.003-0.067,0.006-0.102
				c0.001-0.032,0.004-0.064,0.004-0.097C314.603,418.932,314.6,418.899,314.599,418.868z"/>
		</g>
	</g>
	<g>
		<g>
			<path fill="#0066FF" d="M288.069,426.963l-8.135-8.143l7.99-8c0.808-0.809,0.808-2.118-0.001-2.926
				c-0.809-0.808-2.12-0.807-2.927,0.001l-9.451,9.462c-0.036,0.036-0.067,0.073-0.099,0.11c-0.015,0.016-0.03,0.029-0.042,0.045
				c-0.027,0.034-0.051,0.068-0.075,0.103c-0.016,0.021-0.034,0.043-0.048,0.065c-0.02,0.03-0.037,0.063-0.056,0.095
				c-0.017,0.027-0.034,0.054-0.048,0.082c-0.015,0.027-0.026,0.056-0.04,0.084c-0.015,0.034-0.031,0.065-0.045,0.099
				c-0.012,0.026-0.018,0.053-0.028,0.08c-0.013,0.037-0.027,0.073-0.038,0.109c-0.008,0.029-0.015,0.057-0.021,0.086
				c-0.008,0.036-0.019,0.071-0.027,0.108c-0.005,0.031-0.008,0.063-0.013,0.096c-0.005,0.034-0.011,0.067-0.015,0.101
				c-0.004,0.034-0.004,0.066-0.005,0.1c-0.001,0.033-0.004,0.065-0.004,0.099c0,0.032,0.003,0.065,0.004,0.098
				c0.001,0.034,0.001,0.067,0.005,0.1c0.002,0.034,0.008,0.066,0.014,0.1c0.005,0.033,0.007,0.065,0.014,0.097
				c0.007,0.035,0.017,0.069,0.025,0.103c0.008,0.03,0.014,0.061,0.023,0.091c0.01,0.034,0.023,0.066,0.035,0.1
				c0.011,0.03,0.02,0.06,0.031,0.089c0.013,0.029,0.027,0.059,0.042,0.088c0.015,0.031,0.027,0.064,0.044,0.096
				c0.013,0.024,0.028,0.047,0.042,0.071c0.021,0.036,0.04,0.07,0.063,0.104c0.012,0.02,0.028,0.038,0.041,0.057
				c0.027,0.038,0.052,0.076,0.082,0.111c0.012,0.014,0.025,0.027,0.038,0.041c0.034,0.039,0.066,0.078,0.103,0.115l9.595,9.605
				c0.405,0.405,0.935,0.607,1.464,0.607c0.529,0,1.059-0.202,1.463-0.605C288.874,429.082,288.875,427.771,288.069,426.963z"/>
		</g>
	</g>
</g>
</svg>
