<?xml version="1.0" encoding="utf-8"?>
<!-- Generator: Adobe Illustrator 15.1.0, SVG Export Plug-In . SVG Version: 6.00 Build 0)  -->
<!DOCTYPE svg PUBLIC "-//W3C//DTD SVG 1.1//EN" "http://www.w3.org/Graphics/SVG/1.1/DTD/svg11.dtd">
<svg version="1.1" id="Layer_1" xmlns="http://www.w3.org/2000/svg" xmlns:xlink="http://www.w3.org/1999/xlink" x="0px" y="0px"
	 width="308px" height="90px" viewBox="0 0 308 90" enable-background="new 0 0 308 90" xml:space="preserve">
<g>
	<g>
		<path fill="#171617" d="M168.652,62.34V25h7.056v31.705h29.039v5.635H168.652z"/>
		<path fill="#171617" d="M217.375,62.34l-21.512-37.341h7.571l16.734,30.026l16.047-30.026h6.969L222.752,62.34H217.375z"/>
		<path fill="#171617" d="M252.932,32.486c0.172,1.09,0.301,2.193,0.387,3.313c0.086,1.119,0.131,2.236,0.131,3.355V62.34h-6.496V25
			h5.377l27.4,24.393c0.805,0.688,1.571,1.448,2.304,2.279c0.731,0.831,1.454,1.778,2.171,2.839c-0.2-1.118-0.352-2.251-0.451-3.396
			c-0.102-1.148-0.151-2.339-0.151-3.571V25h6.497v37.341h-4.817l-27.964-24.736c-0.976-0.918-1.813-1.785-2.517-2.603
			C254.1,34.184,253.477,33.345,252.932,32.486z"/>
	</g>
	<polygon fill="#171617" points="163.257,62.209 132.63,42.937 160.07,25 150.262,25 131.4,37.804 131.4,26.377 124.322,26.377 
		124.322,37.708 122.356,36.471 113.573,36.602 124.322,43.817 124.322,63.08 131.4,63.08 131.4,48.771 151.596,62.34 
		163.125,62.34 162.917,62.209 	"/>
</g>
<path fill="#231F20" d="M103.475,43.612c-0.513,0.035-0.891,0.049-1.131,0.049c-4.726,0-8.066-1.087-10.017-3.246
	c-1.891-2.097-2.856-5.672-2.917-10.703v-7.71c0-0.078-0.011-0.154-0.013-0.232c-0.104-3.865-2.782-7.078-6.387-7.998
	c-0.674-0.172-1.376-0.273-2.104-0.273H34.913c-0.701,0-1.379,0.094-2.031,0.254c-3.356,0.824-5.924,3.634-6.388,7.117
	c-0.05,0.371-0.084,0.747-0.084,1.132v9.625c-0.263,4.03-1.204,6.968-2.846,8.788c-1.949,2.159-5.291,3.246-10.017,3.246
	c-0.24,0-0.619-0.014-1.131-0.049c-0.514-0.033-0.906-0.052-1.182-0.052v5.443c0.275,0,0.668-0.014,1.182-0.047
	c0.513-0.028,0.891-0.047,1.131-0.047c4.726,0,8.065,1.077,10.017,3.241c1.642,1.812,2.583,4.742,2.846,8.759v7.086
	c0,0.385,0.034,0.76,0.084,1.131c0.461,3.459,2.997,6.256,6.318,7.103c0.673,0.172,1.374,0.271,2.102,0.271h45.993
	c0.752,0,1.478-0.106,2.173-0.291c3.568-0.94,6.215-4.142,6.318-7.979c0.002-0.078,0.013-0.154,0.013-0.232v-5.178
	c0.061-5.014,1.026-8.58,2.917-10.668c1.949-2.164,5.291-3.24,10.017-3.24c0.24,0,0.619,0.02,1.131,0.047
	c0.513,0.033,0.906,0.047,1.182,0.047v-5.443C104.38,43.561,103.988,43.58,103.475,43.612z M83.196,63.51H71.716L51.601,49.998
	v13.811h-7.049V45.062l-10.705-7.187l8.745-0.132l1.96,1.233V26.324h7.049v12.749l18.787-12.751h9.768L52.826,44.187L83.328,63.38
	H82.99L83.196,63.51z"/>
</svg>
